{"title":"Scooby-Doo Mask Of The Blue Falcon 2012 720p BRRip 720p x264 - P","uid":8209441,"size":467332844,"categoryP":"video","categoryS":"hd___movies","magnet":"?xt=urn:btih:bbe715ab64ae7e4a03e803a85085ef1015b186bd&amp;dn=Scooby-Doo+Mask+Of+The+Blue+Falcon+2012+720p+BRRip+720p+x264+-+P&amp;tr=udp%3A%2F%2Ftracker.openbittorrent.com%3A80&amp;tr=udp%3A%2F%2Fopen.demonii.com%3A1337&amp;tr=udp%3A%2F%2Ftracker.coppersurfer.tk%3A6969&amp;tr=udp%3A%2F%2Fexodus.desync.com%3A6969","seeders":0,"leechers":1,"uploader":"ValidusVyto","files":-1,"time":1362202894,"description":"_________________________  Visit us at _________________________\n  &lt;a href=&quot;\nhttp://p2pdl.com&quot; rel=&quot;nofollow&quot; target=&quot;_NEW&quot;&gt;\nhttp://p2pdl.com&lt;/a&gt;  ____________________________ &lt;a href=&quot; http://p2pdl.com&quot; rel=&quot;nofollow&quot; target=&quot;_NEW&quot;&gt; http://p2pdl.com&lt;/a&gt;\n\nScooby-Doo Mask Of The Blue Falcon 2012 720p BRRip 720p x264 - PRiSTiNE\n\nGenre: Animation | Adventure | Family\nPlot: The gang meet the faded Blue Falcon lead actor at a comic book convention, \nas he swears revenge for being left out of Hollywood. Later, an antagonist from \nthe actual Blue Falcon animated series, Mr. Hyde, begins terrorizing the convention, \ntrying to stop the release of the new Falcon film.\nDirector: Jen Soska, Sylvia Soska\nStars: Gregg Berger, Mindy Cohn, Nika Futterman | See full cast and crew\nRated: No.\n\nInfo: &lt;a href=&quot;\nhttp://www.imdb.com/title/tt2586070/&quot; rel=&quot;nofollow&quot; target=&quot;_NEW&quot;&gt;\nhttp://www.imdb.com/title/tt2586070/&lt;/a&gt;\n\nTrailer:\n\nGeneral\nComplete name                  : Scooby-Doo Mask of the Blue Falcon 2012 720p BRRip 720p x264 - PRiSTiNE.mp4\nFormat                         : MPEG-4\nFormat profile                 : Base Media\nCodec ID                       : isom\nFile size                      : 436 MiB\nDuration                       : 1h 16mn\nOverall bit rate mode          : Variable\nOverall bit rate               : 797 Kbps\n\nVideo\nID                             : 1\nFormat                         : AVC\nFormat/Info                    : Advanced Video Codec\nFormat profile                 : &lt;a class=&quot;__cf_email__&quot; href=&quot;/cdn-cgi/l/email-protection&quot; data-cfemail=&quot;95ddfcf2fdd5d9a1bba4&quot;&gt;[email&amp;#160;protected]&lt;/a&gt;&lt;script cf-hash='f9e31' type=&quot;text/javascript&quot;&gt;\n/* &lt;![CDATA[ */!function(){try{var t=&quot;currentScript&quot;in document?document.currentScript:function(){for(var t=document.getElementsByTagName(&quot;script&quot;),e=t.length;e--;)if(t[e].getAttribute(&quot;cf-hash&quot;))return t[e]}();if(t&amp;&amp;t.previousSibling){var e,r,n,i,c=t.previousSibling,a=c.getAttribute(&quot;data-cfemail&quot;);if(a){for(e=&quot;&quot;,r=parseInt(a.substr(0,2),16),n=2;a.length-n;n+=2)i=parseInt(a.substr(n,2),16)^r,e+=String.fromCharCode(i);e=document.createTextNode(e),c.parentNode.replaceChild(e,c)}}}catch(u){}}();/* ]]&gt; */&lt;/script&gt;\nBit rate                       : 698 Kbps\nWidth                          : 1 280 pixels\nHeight                         : 720 pixels\nDisplay aspect ratio           : 16:9\nFrame rate mode                : Constant\nFrame rate                     : 23.976 fps\nColor space                    : YUV\nBit depth                      : 8 bits\nStream size                    : 382 MiB (88%)\nWriting library                : x264 core 129 r2245 bc13772\n\nAudio\nFormat                         : AAC\nBit rate mode                  : Variable\nBit rate                       : 96.0 Kbps\nChannel(s)                     : 2 channels\nChannel positions              : Front: L R\nSampling rate                  : 44.1 KHz\nStream size                    : 52.4 MiB (12%)\nLanguage                       : English\n\nSubtitle                       : Yes ( English)\n\n\nScreens: &lt;a href=&quot;\nhttp://www.ultraimg.com/images/UV25.jpg&quot; rel=&quot;nofollow&quot; target=&quot;_NEW&quot;&gt;\nhttp://www.ultraimg.com/images/UV25.jpg&lt;/a&gt; &lt;a href=&quot;\nhttp://www.ultraimg.com/images/Yq2iD.jpg&quot; rel=&quot;nofollow&quot; target=&quot;_NEW&quot;&gt;\nhttp://www.ultraimg.com/images/Yq2iD.jpg&lt;/a&gt; &lt;a href=&quot;\nhttp://www.ultraimg.com/images/52ls.jpg&quot; rel=&quot;nofollow&quot; target=&quot;_NEW&quot;&gt;\nhttp://www.ultraimg.com/images/52ls.jpg&lt;/a&gt; &lt;a href=&quot;\nhttp://www.ultraimg.com/images/odaxB.jpg&quot; rel=&quot;nofollow&quot; target=&quot;_NEW&quot;&gt;\nhttp://www.ultraimg.com/images/odaxB.jpg&lt;/a&gt;\n\nThumbs: &lt;a href=&quot;\nhttp://www.ultraimg.com/images/JzMrD.jpg&quot; rel=&quot;nofollow&quot; target=&quot;_NEW&quot;&gt;\nhttp://www.ultraimg.com/images/JzMrD.jpg&lt;/a&gt;\n----------------------------------------------------------------------------------------------------\nEncoded using revolutionary 10bit encoding, which enables us to provide you more crispier \nand sharper images at small sizes, just make sure you follow our instructions without a fault.\nRecommend to you to use latest version of VLC player. Install K-Lite Codec Pack or shark007 codecs\nin case of any kind of problem in playback (For non-VLC Media Player users). Alternatively, install\nCore AVC codecs, the fastest decoder that there is coupled with Community Center Codec Pack and play\non Windows Media Player Classic. Check sample to be sure.","torrent":{"xt":"urn:btih:bbe715ab64ae7e4a03e803a85085ef1015b186bd","amp;dn":"Scooby-Doo+Mask+Of+The+Blue+Falcon+2012+720p+BRRip+720p+x264+-+P","amp;tr":["udp%3A%2F%2Ftracker.openbittorrent.com%3A80","udp%3A%2F%2Fopen.demonii.com%3A1337","udp%3A%2F%2Ftracker.coppersurfer.tk%3A6969","udp%3A%2F%2Fexodus.desync.com%3A6969"],"infoHash":"bbe715ab64ae7e4a03e803a85085ef1015b186bd","infoHashBuffer":{"type":"Buffer","data":[187,231,21,171,100,174,126,74,3,232,3,168,80,133,239,16,21,177,134,189]},"announce":[],"urlList":[]}}